# xmcd
#
# Track frame offsets:
#	150
#	11622
#	20925
#	32632
#	45082
#	57675
#	70127
#	80257
#	91132
#	102665
#	116495
#	129905
#	139745
#	153380
#	171632
#	187830
#	197852
#	207987
#	221345
#	234257
#	250122
#	263522
#	280945
#	294962
#	308782
#
# Disc length: 4292 seconds
# Revision: 0
# Processed by: cddbd v1.5.2PL0 Copyright (c) Steve Scherf et al.
# Submitted via: dBpowerAMP V12.0
#
DISCID=5d10c219
DTITLE=Various Artist - CBS Records: Tree International 1958-1988 (1 Of 4)
DYEAR=1989
DGENRE=Country
TTITLE0=Ray Price - Curtain In The Window
TTITLE1=Charlie Walker - Pick Me Up On Your Way Down
TTITLE2=Ray Price - Heartaches By The Number
TTITLE3=Ray Price - Same Old Me
TTITLE4=Ray Price - That's What It's Like To Be Lonesome
TTITLE5=Ray Price - Soft Rain
TTITLE6=Billy Walker - Charlie's Shoes
TTITLE7=Billy Walker - Willie The Weeper
TTITLE8=Ray Price - Make The World Go Away
TTITLE9=Lefty Frizzell - Saginaw Michigan
TTITLE10=Ray Price - The Other Woman
TTITLE11=Charlie Walker - Wild As A Wildcat
TTITLE12=Ray Price - A Way To Survive
TTITLE13=Ray Price - I'm Still Not Over You
TTITLE14=Tammy Wynette and David Houston - My Elusive Dreams
TTITLE15=Statler Brothers - Ruthless
TTITLE16=Statler Brothers - You Can't Have Your Kate And Edith Too
TTITLE17=Tammy Wynette - D-I-V-O-R-C-E
TTITLE18=Tommy Cash - Six White Horses
TTITLE19=Tammy Wynette - The Wonders You Perform
TTITLE20=Ray Price - You Wouldn't Know Love
TTITLE21=David Houston - Nashville
TTITLE22=Johnny Cash - Oney
TTITLE23=Tanya Tucker - Blood Red And Goin' Down
TTITLE24=Tanya Tucker - Jamestown Ferry
EXTD=
EXTT0=
EXTT1=
EXTT2=
EXTT3=
EXTT4=
EXTT5=
EXTT6=
EXTT7=
EXTT8=
EXTT9=
EXTT10=
EXTT11=
EXTT12=
EXTT13=
EXTT14=
EXTT15=
EXTT16=
EXTT17=
EXTT18=
EXTT19=
EXTT20=
EXTT21=
EXTT22=
EXTT23=
EXTT24=
PLAYORDER=
